ffmpeg version n4.4.1 Copyright (c) 2000-2021 the FFmpeg developers
  built with gcc 11.1.0 (GCC)
  configuration: --prefix=/usr --disable-debug --disable-static --disable-stripping --enable-amf --enable-avisynth --enable-cuda-llvm --enable-lto --enable-fontconfig --enable-gmp --enable-gnutls --enable-gpl --enable-ladspa --enable-libaom --enable-libass --enable-libbluray --enable-libdav1d --enable-libdrm --enable-libfreetype --enable-libfribidi --enable-libgsm --enable-libiec61883 --enable-libjack --enable-libmfx --enable-libmodplug --enable-libmp3lame --enable-libopencore_amrnb --enable-libopencore_amrwb --enable-libopenjpeg --enable-libopus --enable-libpulse --enable-librav1e --enable-librsvg --enable-libsoxr --enable-libspeex --enable-libsrt --enable-libssh --enable-libsvtav1 --enable-libtheora --enable-libv4l2 --enable-libvidstab --enable-libvmaf --enable-libvorbis --enable-libvpx --enable-libwebp --enable-libx264 --enable-libx265 --enable-libxcb --enable-libxml2 --enable-libxvid --enable-libzimg --enable-nvdec --enable-nvenc --enable-shared --enable-version3
  libavutil      56. 70.100 / 56. 70.100
  libavcodec     58.134.100 / 58.134.100
  libavformat    58. 76.100 / 58. 76.100
  libavdevice    58. 13.100 / 58. 13.100
  libavfilter     7.110.100 /  7.110.100
  libswscale      5.  9.100 /  5.  9.100
  libswresample   3.  9.100 /  3.  9.100
  libpostproc    55.  9.100 / 55.  9.100
Input #0, rawvideo, from 'pipe:':
  Duration: N/A, start: 0.000000, bitrate: 7077888 kb/s
  Stream #0:0: Video: rawvideo (BGRA / 0x41524742), bgra, 2560x1440, 7077888 kb/s, 60 tbr, 60 tbn, 60 tbc
Stream mapping:
  Stream #0:0 -> #0:0 (rawvideo (native) -> h264 (libx264))
[libx264 @ 0x55e2dce563c0] using cpu capabilities: MMX2 SSE2Fast SSSE3 SSE4.2 AVX FMA3 BMI2 AVX2
[libx264 @ 0x55e2dce563c0] profile High, level 6.1, 4:2:0, 8-bit
[libx264 @ 0x55e2dce563c0] 264 - core 163 r3060 5db6aa6 - H.264/MPEG-4 AVC codec - Copyleft 2003-2021 - http://www.videolan.org/x264.html - options: cabac=1 ref=3 deblock=1:0:0 analyse=0x3:0x113 me=hex subme=7 psy=1 psy_rd=1.00:0.00 mixed_ref=1 me_range=16 chroma_me=1 trellis=1 8x8dct=1 cqm=0 deadzone=21,11 fast_pskip=1 chroma_qp_offset=-2 threads=24 lookahead_threads=4 sliced_threads=0 nr=0 decimate=1 interlaced=0 bluray_compat=0 constrained_intra=0 bframes=3 b_pyramid=2 b_adapt=1 b_bias=0 direct=1 weightb=1 open_gop=0 weightp=2 keyint=250 keyint_min=25 scenecut=40 intra_refresh=0 rc_lookahead=40 rc=abr mbtree=1 bitrate=209715 ratetol=1.0 qcomp=0.60 qpmin=0 qpmax=69 qpstep=4 ip_ratio=1.40 aq=1:1.00
Output #0, mp4, to '2022_01_21_19_09_43.mp4':
  Metadata:
    encoder         : Lavf58.76.100
  Stream #0:0: Video: h264 (avc1 / 0x31637661), yuv420p(tv, progressive), 2560x1440, q=2-31, 209715 kb/s, 60 fps, 15360 tbn
    Metadata:
      encoder         : Lavc58.134.100 libx264
    Side data:
      cpb: bitrate max/min/avg: 0/0/209715000 buffer size: 0 vbv_delay: N/A
frame=    1 fps=0.0 q=0.0 size=       0kB time=00:00:00.00 bitrate=N/A speed=   0x    frame=   12 fps=0.0 q=0.0 size=       0kB time=00:00:00.00 bitrate=N/A speed=   0x    frame=   22 fps= 20 q=0.0 size=       0kB time=00:00:00.00 bitrate=N/A speed=   0x    frame=   32 fps= 19 q=0.0 size=       0kB time=00:00:00.00 bitrate=N/A speed=   0x    frame=   42 fps= 19 q=0.0 size=       0kB time=00:00:00.00 bitrate=N/A speed=   0x    frame=   50 fps= 19 q=0.0 size=       0kB time=00:00:00.00 bitrate=N/A speed=   0x    frame=   57 fps= 17 q=0.0 size=       0kB time=00:00:00.00 bitrate=N/A speed=   0x    frame=   65 fps= 17 q=0.0 size=       0kB time=00:00:00.00 bitrate=N/A speed=   0x    frame=   72 fps= 16 q=9.0 size=    4864kB time=00:00:00.01 bitrate=2381441.1kbits/s speed=0.00374x    frame=   79 fps= 16 q=13.0 size=   11520kB time=00:00:00.13 bitrate=707448.6kbits/s speed=0.0267x    frame=   87 fps= 16 q=14.0 size=   19200kB time=00:00:00.26 bitrate=589681.0kbits/s speed=0.0485x    frame=   94 fps= 16 q=14.0 size=   25344kB time=00:00:00.38 bitrate=541521.9kbits/s speed=0.0638x    frame=  101 fps= 15 q=14.0 size=   28672kB time=00:00:00.50 bitrate=469701.8kbits/s speed=0.0767x    frame=  109 fps= 15 q=14.0 size=   31488kB time=00:00:00.63 bitrate=407248.0kbits/s speed=0.09x    frame=  117 fps= 15 q=14.0 size=   34304kB time=00:00:00.76 bitrate=366515.0kbits/s speed=0.101x    frame=  125 fps= 15 q=14.0 size=   36864kB time=00:00:00.90 bitrate=335520.5kbits/s speed=0.111x    frame=  133 fps= 15 q=13.0 size=   39168kB time=00:00:01.03 bitrate=310494.7kbits/s speed=0.12x    frame=  141 fps= 15 q=13.0 size=   41728kB time=00:00:01.16 bitrate=292986.0kbits/s speed=0.125x    frame=  149 fps= 15 q=13.0 size=   44544kB time=00:00:01.30 bitrate=280682.0kbits/s speed=0.132x    frame=  157 fps= 15 q=13.0 size=   47360kB time=00:00:01.43 bitrate=270667.0kbits/s speed=0.138x    frame=  164 fps= 15 q=13.0 size=   50176kB time=00:00:01.55 bitrate=265177.4kbits/s speed=0.139x    frame=  173 fps= 15 q=13.0 size=   53760kB time=00:00:01.70 bitrate=259050.3kbits/s speed=0.146x    frame=  181 fps= 15 q=13.0 size=   57088kB time=00:00:01.83 bitrate=255081.2kbits/s speed=0.15x    frame=  190 fps= 15 q=13.0 size=   61184kB time=00:00:01.98 bitrate=252707.6kbits/s speed=0.155x    frame=  198 fps= 15 q=13.0 size=   64512kB time=00:00:02.11 bitrate=249669.2kbits/s speed=0.159x    frame=  206 fps= 15 q=13.0 size=   67840kB time=00:00:02.25 bitrate=246990.9kbits/s speed=0.163x    frame=  212 fps= 15 q=13.0 size=   70144kB time=00:00:02.35 bitrate=244512.4kbits/s speed=0.164x    frame=  220 fps= 15 q=13.0 size=   73472kB time=00:00:02.48 bitrate=242362.7kbits/s speed=0.167x    frame=  228 fps= 15 q=13.0 size=   76800kB time=00:00:02.61 bitrate=240432.0kbits/s speed=0.17x    frame=  236 fps= 15 q=13.0 size=   80128kB time=00:00:02.75 bitrate=238688.5kbits/s speed=0.173x    frame=  243 fps= 15 q=13.0 size=   83200kB time=00:00:02.86 bitrate=237753.2kbits/s speed=0.174x    frame=  250 fps= 15 q=13.0 size=   86016kB time=00:00:02.98 bitrate=236188.2kbits/s speed=0.176x    frame=  258 fps= 15 q=13.0 size=   89344kB time=00:00:03.11 bitrate=234831.4kbits/s speed=0.178x    frame=  266 fps= 15 q=13.0 size=   92672kB time=00:00:03.25 bitrate=233585.9kbits/s speed=0.18x    frame=  272 fps= 15 q=13.0 size=   94976kB time=00:00:03.35 bitrate=232247.4kbits/s speed=0.18x    frame=  280 fps= 15 q=13.0 size=   98304kB time=00:00:03.48 bitrate=231184.2kbits/s speed=0.182x    frame=  287 fps= 15 q=13.0 size=  101376kB time=00:00:03.60 bitrate=230682.7kbits/s speed=0.183x    frame=  294 fps= 15 q=13.0 size=  104448kB time=00:00:03.71 bitrate=230212.6kbits/s speed=0.184x    frame=  301 fps= 15 q=13.0 size=  107264kB time=00:00:03.83 bitrate=229224.1kbits/s speed=0.185x    frame=  309 fps= 15 q=13.0 size=  111104kB time=00:00:03.96 bitrate=229449.4kbits/s speed=0.187x    frame=  317 fps= 15 q=13.0 size=  114944kB time=00:00:04.10 bitrate=229660.2kbits/s speed=0.188x    frame=  324 fps= 14 q=13.0 size=  119296kB time=00:00:04.21 bitrate=231760.8kbits/s speed=0.189x    frame=  329 fps= 14 q=13.0 size=  121600kB time=00:00:04.30 bitrate=231658.7kbits/s speed=0.188x    frame=  338 fps= 14 q=13.0 size=  125696kB time=00:00:04.45 bitrate=231390.3kbits/s speed=0.19x    frame=  345 fps= 14 q=13.0 size=  128768kB time=00:00:04.56 bitrate=230989.7kbits/s speed=0.191x    frame=  352 fps= 14 q=13.0 size=  131840kB time=00:00:04.68 bitrate=230609.0kbits/s speed=0.191x    frame=  360 fps= 14 q=13.0 size=  135424kB time=00:00:04.81 bitrate=230320.8kbits/s speed=0.192x    frame=  368 fps= 14 q=13.0 size=  138496kB time=00:00:04.95 bitrate=229201.0kbits/s speed=0.193x    frame=  375 fps= 14 q=13.0 size=  141056kB time=00:00:05.06 bitrate=228062.4kbits/s speed=0.194x    frame=  382 fps= 14 q=13.0 size=  144128kB time=00:00:05.18 bitrate=227784.4kbits/s speed=0.194x    frame=  387 fps= 14 q=13.0 size=  145920kB time=00:00:05.26 bitrate=226967.5kbits/s speed=0.194x    frame=  394 fps= 14 q=13.0 size=  148736kB time=00:00:05.38 bitrate=226333.9kbits/s speed=0.194x    frame=  400 fps= 14 q=13.0 size=  151296kB time=00:00:05.48 bitrate=226030.9kbits/s speed=0.193x    frame=  409 fps= 14 q=13.0 size=  154880kB time=00:00:05.63 bitrate=225224.2kbits/s speed=0.195x    frame=  417 fps= 14 q=13.0 size=  158208kB time=00:00:05.76 bitrate=224744.3kbits/s speed=0.196x    frame=  425 fps= 14 q=13.0 size=  161024kB time=00:00:05.90 bitrate=223575.3kbits/s speed=0.197x    frame=  433 fps= 14 q=13.0 size=  164352kB time=00:00:06.03 bitrate=223153.2kbits/s speed=0.197x    frame=  438 fps= 14 q=13.0 size=  166144kB time=00:00:06.11 bitrate=222512.9kbits/s speed=0.197x    frame=  446 fps= 14 q=13.0 size=  169216kB time=00:00:06.25 bitrate=221792.6kbits/s speed=0.197x    frame=  453 fps= 14 q=13.0 size=  172288kB time=00:00:06.36 bitrate=221681.0kbits/s speed=0.198x    frame=  461 fps= 14 q=13.0 size=  175360kB time=00:00:06.50 bitrate=221005.4kbits/s speed=0.198x    frame=  469 fps= 14 q=13.0 size=  178688kB time=00:00:06.63 bitrate=220673.1kbits/s speed=0.199x    frame=  477 fps= 14 q=13.0 size=  182016kB time=00:00:06.76 bitrate=220353.9kbits/s speed=0.199x    frame=  484 fps= 14 q=13.0 size=  184832kB time=00:00:06.88 bitrate=219970.4kbits/s speed= 0.2x    frame=  491 fps= 14 q=13.0 size=  187392kB time=00:00:07.00 bitrate=219300.2kbits/s speed=0.199x    frame=  499 fps= 14 q=13.0 size=  190720kB time=00:00:07.13 bitrate=219023.1kbits/s speed=0.199x    frame=  506 fps= 14 q=13.0 size=  193792kB time=00:00:07.25 bitrate=218969.7kbits/s speed= 0.2x    frame=  513 fps= 14 q=13.0 size=  196864kB time=00:00:07.36 bitrate=218918.0kbits/s speed= 0.2x    frame=  521 fps= 14 q=13.0 size=  200448kB time=00:00:07.50 bitrate=218940.8kbits/s speed=0.201x    frame=  528 fps= 14 q=13.0 size=  203264kB time=00:00:07.61 bitrate=218615.9kbits/s speed=0.201x    frame=  535 fps= 14 q=13.0 size=  205824kB time=00:00:07.73 bitrate=218029.7kbits/s speed=0.201x    frame=  542 fps= 14 q=13.0 size=  208896kB time=00:00:07.85 bitrate=217995.2kbits/s speed=0.201x    frame=  546 fps= 14 q=10.0 size=  210688kB time=00:00:07.91 bitrate=218013.8kbits/s speed= 0.2x    frame=  553 fps= 14 q=13.0 size=  213760kB time=00:00:08.03 bitrate=217980.3kbits/s speed=0.201x    frame=  560 fps= 14 q=13.0 size=  216576kB time=00:00:08.15 bitrate=217690.4kbits/s speed=0.201x    frame=  568 fps= 14 q=13.0 size=  219392kB time=00:00:08.28 bitrate=216971.3kbits/s speed=0.201x    frame=  575 fps= 14 q=13.0 size=  223488kB time=00:00:08.40 bitrate=217952.4kbits/s speed=0.201x    frame=  581 fps= 14 q=13.0 size=  225792kB time=00:00:08.50 bitrate=217608.7kbits/s speed=0.201x    frame=  588 fps= 14 q=13.0 size=  228864kB time=00:00:08.61 bitrate=217583.0kbits/s speed=0.202x    frame=  594 fps= 14 q=13.0 size=  231424kB time=00:00:08.71 bitrate=217492.7kbits/s speed=0.201x    frame=  600 fps= 14 q=13.0 size=  233728kB time=00:00:08.81 bitrate=217166.7kbits/s speed=0.201x    frame=  607 fps= 14 q=13.0 size=  236800kB time=00:00:08.93 bitrate=217147.6kbits/s speed=0.201x    frame=  614 fps= 14 q=13.0 size=  239872kB time=00:00:09.05 bitrate=217129.0kbits/s speed=0.202x    frame=  621 fps= 14 q=13.0 size=  242432kB time=00:00:09.16 bitrate=216653.4kbits/s speed=0.202x    frame=  629 fps= 14 q=13.0 size=  245504kB time=00:00:09.30 bitrate=216253.2kbits/s speed=0.202x    frame=  636 fps= 14 q=13.0 size=  248576kB time=00:00:09.41 bitrate=216246.5kbits/s speed=0.203x    frame=  643 fps= 14 q=13.0 size=  251648kB time=00:00:09.53 bitrate=216239.9kbits/s speed=0.203x    frame=  650 fps= 14 q=13.0 size=  254464kB time=00:00:09.65 bitrate=216016.1kbits/s speed=0.203x    frame=  656 fps= 14 q=13.0 size=  256512kB time=00:00:09.75 bitrate=215521.3kbits/s speed=0.203x    frame=  664 fps= 14 q=13.0 size=  259840kB time=00:00:09.88 bitrate=215372.2kbits/s speed=0.203x    frame=  671 fps= 14 q=13.0 size=  262656kB time=00:00:10.00 bitrate=215166.4kbits/s speed=0.203x    frame=  679 fps= 14 q=13.0 size=  265984kB time=00:00:10.13 bitrate=215025.7kbits/s speed=0.204x    frame=  686 fps= 14 q=13.0 size=  268800kB time=00:00:10.25 bitrate=214828.9kbits/s speed=0.204x    frame=  694 fps= 14 q=13.0 size=  272128kB time=00:00:10.38 bitrate=214695.9kbits/s speed=0.204x    frame=  702 fps= 14 q=13.0 size=  275200kB time=00:00:10.51 bitrate=214366.9kbits/s speed=0.205x    frame=  709 fps= 14 q=13.0 size=  277504kB time=00:00:10.63 bitrate=213789.9kbits/s speed=0.205x    frame=  717 fps= 14 q=13.0 size=  280576kB time=00:00:10.76 bitrate=213479.7kbits/s speed=0.205x    frame=  725 fps= 14 q=13.0 size=  283904kB time=00:00:10.90 bitrate=213369.5kbits/s speed=0.205x    frame=  733 fps= 14 q=13.0 size=  286976kB time=00:00:11.03 bitrate=213072.0kbits/s speed=0.206x    frame=  740 fps= 14 q=13.0 size=  289792kB time=00:00:11.15 bitrate=212911.4kbits/s speed=0.206x    frame=  748 fps= 14 q=13.0 size=  293120kB time=00:00:11.28 bitrate=212811.7kbits/s speed=0.206x    frame=  756 fps= 14 q=13.0 size=  296192kB time=00:00:11.41 bitrate=212530.6kbits/s speed=0.206x    frame=  763 fps= 14 q=13.0 size=  299008kB time=00:00:11.53 bitrate=212380.9kbits/s speed=0.207x    frame=  771 fps= 14 q=13.0 size=  302080kB time=00:00:11.66 bitrate=212110.8kbits/s speed=0.207x    frame=  779 fps= 14 q=13.0 size=  305152kB time=00:00:11.80 bitrate=211846.8kbits/s speed=0.207x    frame=  787 fps= 14 q=13.0 size=  308224kB time=00:00:11.93 bitrate=211588.6kbits/s speed=0.208x    frame=  794 fps= 14 q=13.0 size=  310784kB time=00:00:12.05 bitrate=211280.4kbits/s speed=0.208x    frame=  801 fps= 14 q=13.0 size=  313088kB time=00:00:12.16 bitrate=210805.8kbits/s speed=0.208x    frame=  809 fps= 14 q=13.0 size=  316160kB time=00:00:12.30 bitrate=210566.6kbits/s speed=0.208x    frame=  816 fps= 14 q=13.0 size=  318976kB time=00:00:12.41 bitrate=210446.0kbits/s speed=0.208x    frame=  824 fps= 14 q=13.0 size=  322816kB time=00:00:12.55 bitrate=210716.8kbits/s speed=0.209x    frame=  832 fps= 14 q=13.0 size=  325888kB time=00:00:12.68 bitrate=210485.8kbits/s speed=0.209x    frame=  840 fps= 14 q=13.0 size=  328960kB time=00:00:12.81 bitrate=210259.6kbits/s speed=0.209x    frame=  848 fps= 14 q=13.0 size=  332032kB time=00:00:12.95 bitrate=210038.1kbits/s speed=0.21x    frame=  855 fps= 14 q=13.0 size=  334336kB time=00:00:13.06 bitrate=209607.2kbits/s speed=0.21x    frame=  863 fps= 14 q=13.0 size=  337408kB time=00:00:13.20 bitrate=209396.4kbits/s speed=0.21x    frame=  871 fps= 14 q=13.0 size=  340480kB time=00:00:13.33 bitrate=209189.9kbits/s speed=0.21x    frame=  879 fps= 14 q=13.0 size=  343552kB time=00:00:13.46 bitrate=208987.5kbits/s speed=0.211x    frame=  887 fps= 14 q=12.0 size=  346624kB time=00:00:13.60 bitrate=208789.0kbits/s speed=0.211x    frame=  895 fps= 14 q=12.0 size=  349696kB time=00:00:13.73 bitrate=208594.4kbits/s speed=0.211x    frame=  903 fps= 14 q=12.0 size=  352768kB time=00:00:13.86 bitrate=208403.5kbits/s speed=0.211x    frame=  911 fps= 14 q=12.0 size=  355840kB time=00:00:14.00 bitrate=208216.3kbits/s speed=0.212x    frame=  919 fps= 14 q=12.0 size=  358912kB time=00:00:14.13 bitrate=208032.6kbits/s speed=0.212x    frame=  927 fps= 14 q=12.0 size=  362240kB time=00:00:14.26 bitrate=207999.3kbits/s speed=0.212x    frame=  934 fps= 14 q=12.0 size=  365056kB time=00:00:14.38 bitrate=207916.0kbits/s speed=0.212x    frame=  942 fps= 14 q=12.0 size=  368128kB time=00:00:14.51 bitrate=207739.9kbits/s speed=0.213x    frame=  949 fps= 14 q=12.0 size=  370944kB time=00:00:14.63 bitrate=207660.2kbits/s speed=0.213x    frame=  956 fps= 14 q=12.0 size=  373760kB time=00:00:14.75 bitrate=207581.6kbits/s speed=0.213x    frame=  964 fps= 14 q=12.0 size=  376832kB time=00:00:14.88 bitrate=207412.9kbits/s speed=0.213x    frame=  971 fps= 14 q=12.0 size=  379136kB time=00:00:15.00 bitrate=207057.9kbits/s speed=0.213x    frame=  979 fps= 14 q=12.0 size=  382208kB time=00:00:15.13 bitrate=206896.6kbits/s speed=0.213x    frame=  986 fps= 14 q=12.0 size=  385280kB time=00:00:15.25 bitrate=206964.0kbits/s speed=0.213x    frame=  993 fps= 14 q=12.0 size=  388096kB time=00:00:15.36 bitrate=206893.9kbits/s speed=0.213x    frame= 1001 fps= 14 q=12.0 size=  391424kB time=00:00:15.50 bitrate=206873.1kbits/s speed=0.214x    frame= 1008 fps= 14 q=12.0 size=  394240kB time=00:00:15.61 bitrate=206804.8kbits/s speed=0.214x    frame= 1016 fps= 14 q=12.0 size=  397312kB time=00:00:15.75 bitrate=206651.9kbits/s speed=0.214x    frame= 1024 fps= 14 q=12.0 size=  400384kB time=00:00:15.88 bitrate=206501.5kbits/s speed=0.214x    frame= 1031 fps= 14 q=12.0 size=  402944kB time=00:00:16.00 bitrate=206306.5kbits/s speed=0.214x    frame= 1038 fps= 14 q=12.0 size=  405760kB time=00:00:16.11 bitrate=206244.4kbits/s speed=0.214x    frame= 1045 fps= 14 q=12.0 size=  408832kB time=00:00:16.23 bitrate=206312.5kbits/s speed=0.214x    frame= 1053 fps= 14 q=12.0 size=  412160kB time=00:00:16.36 bitrate=206297.5kbits/s speed=0.215x    frame= 1061 fps= 14 q=12.0 size=  415488kB time=00:00:16.50 bitrate=206282.7kbits/s speed=0.215x    frame= 1067 fps= 14 q=12.0 size=  417536kB time=00:00:16.60 bitrate=206050.7kbits/s speed=0.215x    frame= 1075 fps= 14 q=12.0 size=  421888kB time=00:00:16.73 bitrate=206539.5kbits/s speed=0.215x    frame= 1082 fps= 14 q=12.0 size=  424960kB time=00:00:16.85 bitrate=206602.9kbits/s speed=0.215x    frame= 1089 fps= 14 q=12.0 size=  427264kB time=00:00:16.96 bitrate=206294.7kbits/s speed=0.215x    frame= 1097 fps= 14 q=12.0 size=  430848kB time=00:00:17.10 bitrate=206403.1kbits/s speed=0.215x    frame= 1104 fps= 14 q=12.0 size=  433920kB time=00:00:17.21 bitrate=206466.2kbits/s speed=0.215x    frame= 1111 fps= 14 q=12.0 size=  436992kB time=00:00:17.33 bitrate=206528.4kbits/s speed=0.215x    frame= 1118 fps= 14 q=12.0 size=  440064kB time=00:00:17.45 bitrate=206589.8kbits/s speed=0.215x    frame= 1125 fps= 14 q=12.0 size=  442624kB time=00:00:17.56 bitrate=206411.5kbits/s speed=0.215x    frame= 1131 fps= 14 q=12.0 size=  445440kB time=00:00:17.66 bitrate=206548.9kbits/s speed=0.215x    frame= 1138 fps= 14 q=12.0 size=  448512kB time=00:00:17.78 bitrate=206609.0kbits/s speed=0.215x    frame= 1145 fps= 14 q=12.0 size=  451072kB time=00:00:17.90 bitrate=206434.0kbits/s speed=0.215x    frame= 1152 fps= 14 q=12.0 size=  454144kB time=00:00:18.01 bitrate=206494.1kbits/s speed=0.215x    frame= 1159 fps= 14 q=12.0 size=  457216kB time=00:00:18.13 bitrate=206553.3kbits/s speed=0.215x    frame= 1166 fps= 14 q=12.0 size=  460544kB time=00:00:18.25 bitrate=206726.8kbits/s speed=0.215x    frame= 1171 fps= 14 q=12.0 size=  462592kB time=00:00:18.33 bitrate=206702.2kbits/s speed=0.214x    frame= 1179 fps= 14 q=12.0 size=  466176kB time=00:00:18.46 bitrate=206799.7kbits/s speed=0.215x    frame= 1186 fps= 14 q=12.0 size=  468992kB time=00:00:18.58 bitrate=206742.8kbits/s speed=0.215x    frame= 1193 fps= 14 q=12.0 size=  471808kB time=00:00:18.70 bitrate=206686.5kbits/s speed=0.215x    frame= 1200 fps= 14 q=12.0 size=  474880kB time=00:00:18.81 bitrate=206742.5kbits/s speed=0.215x    frame= 1206 fps= 14 q=12.0 size=  477696kB time=00:00:18.91 bitrate=206869.0kbits/s speed=0.214x    frame= 1214 fps= 14 q=12.0 size=  481280kB time=00:00:19.05 bitrate=206962.3kbits/s speed=0.215x    frame= 1221 fps= 14 q=12.0 size=  484096kB time=00:00:19.16 bitrate=206906.2kbits/s speed=0.215x    frame= 1228 fps= 14 q=12.0 size=  487424kB time=00:00:19.28 bitrate=207068.2kbits/s speed=0.215x    frame= 1235 fps= 14 q=12.0 size=  490496kB time=00:00:19.40 bitrate=207120.1kbits/s speed=0.215x    frame= 1241 fps= 14 q=12.0 size=  492800kB time=00:00:19.50 bitrate=207025.9kbits/s speed=0.215x    frame= 1249 fps= 14 q=12.0 size=  496384kB time=00:00:19.63 bitrate=207115.4kbits/s speed=0.215x    frame= 1256 fps= 14 q=12.0 size=  499712kB time=00:00:19.75 bitrate=207272.3kbits/s speed=0.215x    frame= 1263 fps= 14 q=12.0 size=  503040kB time=00:00:19.86 bitrate=207427.4kbits/s speed=0.215x    frame= 1271 fps= 14 q=12.0 size=  506624kB time=00:00:20.00 bitrate=207512.5kbits/s speed=0.215x    frame= 1278 fps= 14 q=12.0 size=  509696kB time=00:00:20.11 bitrate=207560.1kbits/s speed=0.215x    frame= 1286 fps= 14 q=12.0 size=  513280kB time=00:00:20.25 bitrate=207643.3kbits/s speed=0.215x    frame= 1293 fps= 14 q=12.0 size=  516096kB time=00:00:20.36 bitrate=207586.5kbits/s speed=0.215x    frame= 1300 fps= 14 q=12.0 size=  519424kB time=00:00:20.48 bitrate=207735.2kbits/s speed=0.215x    frame= 1307 fps= 14 q=12.0 size=  522496kB time=00:00:20.60 bitrate=207780.3kbits/s speed=0.215x    frame= 1315 fps= 14 q=12.0 size=  526080kB time=00:00:20.73 bitrate=207860.2kbits/s speed=0.215x    frame= 1323 fps= 14 q=12.0 size=  529920kB time=00:00:20.86 bitrate=208039.5kbits/s speed=0.215x    frame= 1330 fps= 14 q=12.0 size=  532992kB time=00:00:20.98 bitrate=208082.2kbits/s speed=0.216x    frame= 1336 fps= 14 q=12.0 size=  535808kB time=00:00:21.08 bitrate=208189.4kbits/s speed=0.215x    frame= 1344 fps= 14 q=12.0 size=  539136kB time=00:00:21.21 bitrate=208166.0kbits/s speed=0.216x    frame= 1352 fps= 14 q=12.0 size=  542720kB time=00:00:21.35 bitrate=208241.2kbits/s speed=0.216x    frame= 1360 fps= 14 q=12.0 size=  546048kB time=00:00:21.48 bitrate=208217.8kbits/s speed=0.216x    frame= 1368 fps= 14 q=12.0 size=  549632kB time=00:00:21.61 bitrate=208291.7kbits/s speed=0.216x    frame= 1375 fps= 14 q=12.0 size=  552192kB time=00:00:21.73 bitrate=208138.5kbits/s speed=0.216x    frame= 1383 fps= 14 q=12.0 size=  555776kB time=00:00:21.86 bitrate=208212.1kbits/s speed=0.216x    frame= 1391 fps= 14 q=12.0 size=  559104kB time=00:00:22.00 bitrate=208189.4kbits/s speed=0.216x    frame= 1399 fps= 14 q=12.0 size=  562688kB time=00:00:22.13 bitrate=208261.8kbits/s speed=0.216x    frame= 1407 fps= 14 q=12.0 size=  566016kB time=00:00:22.26 bitrate=208239.1kbits/s speed=0.217x    frame= 1415 fps= 14 q=12.0 size=  569600kB time=00:00:22.40 bitrate=208310.3kbits/s speed=0.217x    frame= 1423 fps= 14 q=12.0 size=  572928kB time=00:00:22.53 bitrate=208287.6kbits/s speed=0.217x    frame= 1431 fps= 14 q=12.0 size=  576256kB time=00:00:22.66 bitrate=208265.1kbits/s speed=0.217x    frame= 1439 fps= 14 q=12.0 size=  579584kB time=00:00:22.80 bitrate=208242.9kbits/s speed=0.217x    frame= 1447 fps= 14 q=12.0 size=  582912kB time=00:00:22.93 bitrate=208221.0kbits/s speed=0.217x    frame= 1455 fps= 14 q=12.0 size=  586240kB time=00:00:23.06 bitrate=208199.3kbits/s speed=0.218x    frame= 1463 fps= 14 q=12.0 size=  589568kB time=00:00:23.20 bitrate=208177.9kbits/s speed=0.218x    frame= 1471 fps= 14 q=12.0 size=  592896kB time=00:00:23.33 bitrate=208156.8kbits/s speed=0.218x    frame= 1479 fps= 14 q=12.0 size=  596224kB time=00:00:23.46 bitrate=208135.8kbits/s speed=0.218x    frame= 1487 fps= 14 q=12.0 size=  599552kB time=00:00:23.60 bitrate=208115.1kbits/s speed=0.218x    frame= 1495 fps= 14 q=12.0 size=  602880kB time=00:00:23.73 bitrate=208094.7kbits/s speed=0.218x    frame= 1503 fps= 14 q=12.0 size=  606464kB time=00:00:23.86 bitrate=208162.3kbits/s speed=0.219x    frame= 1511 fps= 14 q=12.0 size=  609792kB time=00:00:24.00 bitrate=208141.8kbits/s speed=0.219x    frame= 1519 fps= 14 q=12.0 size=  613120kB time=00:00:24.13 bitrate=208121.5kbits/s speed=0.219x    frame= 1527 fps= 14 q=12.0 size=  616448kB time=00:00:24.26 bitrate=208101.5kbits/s speed=0.219x    frame= 1534 fps= 14 q=12.0 size=  619520kB time=00:00:24.38 bitrate=208137.9kbits/s speed=0.219x    frame= 1543 fps= 14 q=12.0 size=  623104kB time=00:00:24.53 bitrate=208062.0kbits/s speed=0.219x    frame= 1551 fps= 14 q=12.0 size=  626432kB time=00:00:24.66 bitrate=208042.6kbits/s speed=0.22x    frame= 1559 fps= 14 q=12.0 size=  629760kB time=00:00:24.80 bitrate=208023.4kbits/s speed=0.22x    frame= 1567 fps= 14 q=12.0 size=  633088kB time=00:00:24.93 bitrate=208004.4kbits/s speed=0.22x    frame= 1575 fps= 14 q=12.0 size=  637184kB time=00:00:25.06 bitrate=208236.6kbits/s speed=0.22x    frame= 1583 fps= 14 q=12.0 size=  640512kB time=00:00:25.20 bitrate=208216.7kbits/s speed=0.22x    frame= 1591 fps= 14 q=12.0 size=  644096kB time=00:00:25.33 bitrate=208279.8kbits/s speed=0.22x    frame= 1599 fps= 14 q=12.0 size=  647424kB time=00:00:25.46 bitrate=208259.9kbits/s speed=0.22x    frame= 1607 fps= 14 q=12.0 size=  650752kB time=00:00:25.60 bitrate=208240.1kbits/s speed=0.221x    frame= 1615 fps= 14 q=12.0 size=  654080kB time=00:00:25.73 bitrate=208220.6kbits/s speed=0.221x    frame= 1623 fps= 14 q=12.0 size=  657408kB time=00:00:25.86 bitrate=208201.3kbits/s speed=0.221x    frame= 1631 fps= 14 q=12.0 size=  660736kB time=00:00:26.00 bitrate=208182.2kbits/s speed=0.221x    frame= 1639 fps= 14 q=12.0 size=  664064kB time=00:00:26.13 bitrate=208163.2kbits/s speed=0.221x    frame= 1648 fps= 14 q=12.0 size=  667648kB time=00:00:26.28 bitrate=208092.3kbits/s speed=0.221x    frame= 1656 fps= 14 q=12.0 size=  670976kB time=00:00:26.41 bitrate=208074.0kbits/s speed=0.222x    frame= 1665 fps= 14 q=12.0 size=  674816kB time=00:00:26.56 bitrate=208083.3kbits/s speed=0.222x    frame= 1673 fps= 14 q=12.0 size=  678144kB time=00:00:26.70 bitrate=208065.3kbits/s speed=0.222x    frame= 1681 fps= 14 q=12.0 size=  681472kB time=00:00:26.83 bitrate=208047.4kbits/s speed=0.222x    frame= 1690 fps= 14 q=12.0 size=  685568kB time=00:00:26.98 bitrate=208134.4kbits/s speed=0.222x    frame= 1698 fps= 14 q=12.0 size=  688896kB time=00:00:27.11 bitrate=208116.4kbits/s speed=0.222x    frame= 1706 fps= 14 q=12.0 size=  692224kB time=00:00:27.25 bitrate=208098.6kbits/s speed=0.223x    frame= 1714 fps= 14 q=12.0 size=  695808kB time=00:00:27.38 bitrate=208157.5kbits/s speed=0.223x    frame= 1722 fps= 14 q=12.0 size=  699136kB time=00:00:27.51 bitrate=208139.6kbits/s speed=0.223x    frame= 1730 fps= 14 q=12.0 size=  702464kB time=00:00:27.65 bitrate=208122.0kbits/s speed=0.223x    frame= 1738 fps= 14 q=12.0 size=  706048kB time=00:00:27.78 bitrate=208179.9kbits/s speed=0.223x    frame= 1746 fps= 14 q=12.0 size=  709376kB time=00:00:27.91 bitrate=208162.2kbits/s speed=0.223x    frame= 1755 fps= 14 q=12.0 size=  713216kB time=00:00:28.06 bitrate=208170.5kbits/s speed=0.224x    frame= 1763 fps= 14 q=12.0 size=  716800kB time=00:00:28.20 bitrate=208227.4kbits/s speed=0.224x    frame= 1772 fps= 14 q=12.0 size=  720384kB time=00:00:28.35 bitrate=208161.3kbits/s speed=0.224x    frame= 1781 fps= 14 q=12.0 size=  723968kB time=00:00:28.50 bitrate=208095.9kbits/s speed=0.224x    frame= 1789 fps= 14 q=12.0 size=  727552kB time=00:00:28.63 bitrate=208152.3kbits/s speed=0.224x    frame= 1798 fps= 14 q=12.0 size=  731648kB time=00:00:28.78 bitrate=208233.3kbits/s speed=0.224x    frame= 1807 fps= 14 q=12.0 size=  735488kB time=00:00:28.93 bitrate=208240.9kbits/s speed=0.225x    frame= 1807 fps= 14 q=-1.0 Lsize=  762762kB time=00:00:30.06 bitrate=207822.6kbits/s speed=0.23x    
video:762726kB audio:0kB subtitle:0kB other streams:0kB global headers:0kB muxing overhead: 0.004687%
[libx264 @ 0x55e2dce563c0] frame I:8     Avg QP: 1.56  size:1340372
[libx264 @ 0x55e2dce563c0] frame P:456   Avg QP: 4.46  size:776281
[libx264 @ 0x55e2dce563c0] frame B:1343  Avg QP: 6.69  size:309995
[libx264 @ 0x55e2dce563c0] consecutive B-frames:  0.9%  0.0%  0.2% 98.9%
[libx264 @ 0x55e2dce563c0] mb I  I16..4: 31.1% 32.2% 36.7%
[libx264 @ 0x55e2dce563c0] mb P  I16..4: 12.6% 27.4%  4.1%  P16..4: 21.6% 16.0% 17.1%  0.0%  0.0%    skip: 1.2%
[libx264 @ 0x55e2dce563c0] mb B  I16..4:  1.4%  6.4%  0.2%  B16..8: 32.7% 12.2%  9.6%  direct:15.6%  skip:21.9%  L0:37.7% L1:42.2% BI:20.1%
[libx264 @ 0x55e2dce563c0] final ratefactor: 3.88
[libx264 @ 0x55e2dce563c0] 8x8 transform intra:67.6% inter:22.3%
[libx264 @ 0x55e2dce563c0] coded y,uvDC,uvAC intra: 98.9% 92.4% 92.2% inter: 59.3% 55.6% 53.4%
[libx264 @ 0x55e2dce563c0] i16 v,h,dc,p:  3%  9% 48% 40%
[libx264 @ 0x55e2dce563c0] i8 v,h,dc,ddl,ddr,vr,hd,vl,hu:  5% 21% 60%  2%  2%  1%  3%  1%  4%
[libx264 @ 0x55e2dce563c0] i4 v,h,dc,ddl,ddr,vr,hd,vl,hu: 11% 16% 40%  5%  6%  4%  7%  3%  7%
[libx264 @ 0x55e2dce563c0] i8c dc,h,v,p: 65% 21%  6%  8%
[libx264 @ 0x55e2dce563c0] Weighted P-Frames: Y:7.0% UV:2.6%
[libx264 @ 0x55e2dce563c0] ref P L0: 67.3%  7.6% 15.6%  9.1%  0.4%
[libx264 @ 0x55e2dce563c0] ref B L0: 84.7% 12.1%  3.2%
[libx264 @ 0x55e2dce563c0] ref B L1: 94.2%  5.8%
[libx264 @ 0x55e2dce563c0] kb/s:207468.06
